<?xml version="1.0" standalone="no"?>
<!DOCTYPE svg PUBLIC "-//W3C//DTD SVG 20010904//EN"
 "http://www.w3.org/TR/2001/REC-SVG-20010904/DTD/svg10.dtd">
<svg version="1.0" xmlns="http://www.w3.org/2000/svg"
 width="70.000000pt" height="70.000000pt" viewBox="0 0 70.000000 70.000000"
 preserveAspectRatio="xMidYMid meet">
<metadata>
Created by potrace 1.14, written by Peter Selinger 2001-2017
</metadata>
<g transform="translate(0.000000,70.000000) scale(0.100000,-0.100000)"
fill="#000000" stroke="none">
<path d="M440 405 c0 -8 5 -15 10 -15 6 0 10 7 10 15 0 8 -4 15 -10 15 -5 0
-10 -7 -10 -15z"/>
<path d="M180 340 c0 -16 5 -30 10 -30 6 0 10 -9 10 -21 0 -23 22 -49 42 -49
8 0 20 -9 28 -20 11 -15 26 -20 57 -20 32 0 43 -4 43 -15 0 -8 5 -15 10 -15 6
0 10 11 10 25 0 23 -4 25 -40 25 -22 0 -40 5 -40 10 0 6 -9 10 -20 10 -12 0
-32 11 -45 25 -14 13 -25 33 -25 45 0 11 -4 20 -10 20 -5 0 -10 9 -10 20 0 11
-4 20 -10 20 -5 0 -10 -13 -10 -30z"/>
</g>
</svg>
